<svg width="173" height="173" viewBox="0 0 173 173" fill="none" xmlns="http://www.w3.org/2000/svg">
<g clip-path="url(#clip0)">
<path d="M51.68 134.018C53.9828 130.534 55.3279 126.365 55.3279 121.885C55.3279 109.724 45.4297 99.8295 33.263 99.8295C21.0962 99.8295 11.1984 109.724 11.1984 121.885C11.1984 126.365 12.5439 130.535 14.8466 134.019C6.09421 137.644 0.00238037 146.332 0.00238037 156.107V169.621C0.00238037 171.487 1.51512 173 3.38129 173H63.145C65.0112 173 66.5239 171.487 66.5239 169.621V156.107C66.5239 146.331 60.4321 137.643 51.68 134.018ZM33.263 106.587C41.7031 106.587 48.5701 113.45 48.5701 121.885C48.5701 130.326 41.7035 137.193 33.263 137.193C24.8228 137.193 17.9562 130.326 17.9562 121.885C17.9562 113.45 24.8228 106.587 33.263 106.587ZM59.7661 166.242H6.76019V156.107C6.76019 148.193 12.3286 141.272 19.9261 139.448C23.6334 142.271 28.2548 143.951 33.263 143.951C38.2712 143.951 42.8929 142.271 46.6002 139.448C54.1977 141.27 59.7661 148.192 59.7661 156.107V166.242Z" fill="black"/>
<path d="M158.144 134.018C160.447 130.534 161.792 126.365 161.792 121.885C161.792 109.724 151.894 99.8295 139.727 99.8295C127.566 99.8295 117.672 109.724 117.672 121.885C117.672 126.364 119.016 130.533 121.317 134.016C112.562 137.64 106.467 146.33 106.467 156.107V169.621C106.467 171.487 107.979 173 109.846 173H169.619C171.485 173 172.998 171.487 172.998 169.621V156.107C172.998 146.331 166.902 137.642 158.144 134.018ZM139.727 106.587C148.167 106.587 155.034 113.45 155.034 121.885C155.034 130.326 148.167 137.193 139.727 137.193C131.292 137.193 124.43 130.326 124.43 121.885C124.43 113.45 131.292 106.587 139.727 106.587ZM166.24 166.242H113.224V156.107C113.224 148.192 118.795 141.269 126.395 139.447C130.101 142.27 134.721 143.951 139.727 143.951C144.736 143.951 149.357 142.27 153.065 139.448C160.667 141.271 166.24 148.193 166.24 156.107V166.242H166.24Z" fill="black"/>
<path d="M139.821 89.2835C140.375 89.638 141.008 89.8167 141.643 89.8167C142.19 89.8167 142.738 89.6843 143.237 89.4174C144.315 88.8406 144.998 87.7255 145.021 86.5027L145.217 76.3065C154.167 74.1119 160.806 65.9282 160.806 56.4784C160.806 46.5911 153.738 38.3259 144.389 36.4645C144.87 34.325 145.118 32.1398 145.118 29.9283C145.117 13.4257 131.692 0 115.19 0H92.1364C90.2702 0 88.7575 1.51274 88.7575 3.37891C88.7575 5.24508 90.2702 6.75781 92.1364 6.75781H115.19C127.966 6.75781 138.36 17.1523 138.36 29.9287C138.36 32.0148 138.078 34.0715 137.525 36.0702H91.3704C81.2688 36.0702 72.8627 43.4494 71.2473 53.0995H62.1685C61.4045 53.0995 60.6632 53.3583 60.0651 53.8337L40.0529 69.7501L39.7924 56.3071C39.7589 54.5802 38.4283 53.1563 36.7074 53.0063C24.8502 51.9733 15.5619 41.8363 15.5619 29.928C15.5619 17.1523 25.9601 6.75781 38.7415 6.75781H61.7948C63.661 6.75781 65.1737 5.24508 65.1737 3.37891C65.1737 1.51274 63.661 0 61.7948 0H38.7415C22.2339 0 8.80408 13.4257 8.80408 29.9287C8.80408 37.4376 11.6234 44.6303 16.7432 50.1825C21.1297 54.9397 26.8505 58.1182 33.0917 59.3177L33.4285 76.7147C33.4535 78 34.2053 79.1597 35.3684 79.7067C35.8269 79.9226 36.3178 80.0284 36.8064 80.0284C37.5569 80.0284 38.3009 79.7787 38.9101 79.2941L63.3481 59.8577H71.2473C72.8627 69.5078 81.2688 76.887 91.3704 76.887H120.455L139.821 89.2835ZM77.7203 56.4784C77.7203 48.9516 83.8438 42.828 91.3704 42.828H140.398C147.924 42.828 154.048 48.9516 154.048 56.4784C154.048 63.4937 148.58 69.4659 141.598 70.0745C139.877 70.2245 138.547 71.6487 138.514 73.376L138.38 80.3372L123.266 70.6617C122.722 70.3137 122.09 70.1285 121.444 70.1285H91.3704C83.8435 70.1289 77.7203 64.0053 77.7203 56.4784Z" fill="black"/>
<path d="M96.7145 53.0948C94.8483 53.0948 93.3356 54.6123 93.3356 56.4784C93.3356 58.3446 94.8483 59.8573 96.7145 59.8573C98.5806 59.8573 100.093 58.3446 100.093 56.4784V56.469C100.093 54.6028 98.5806 53.0948 96.7145 53.0948Z" fill="#F18500"/>
<path d="M115.889 53.0948C114.023 53.0948 112.51 54.6123 112.51 56.4784C112.51 58.3446 114.023 59.8573 115.889 59.8573C117.755 59.8573 119.268 58.3446 119.268 56.4784V56.469C119.268 54.6028 117.755 53.0948 115.889 53.0948Z" fill="#F18500"/>
<path d="M135.054 59.8573C136.92 59.8573 138.432 58.3446 138.432 56.4784V56.469C138.432 54.6028 136.92 53.0948 135.054 53.0948C133.187 53.0948 131.675 54.6123 131.675 56.4784C131.675 58.3446 133.187 59.8573 135.054 59.8573Z" fill="#F18500"/>
<path d="M76.9654 6.75781H76.9847C78.8509 6.75781 80.3541 5.24508 80.3541 3.37891C80.3541 1.51274 78.8319 0 76.9658 0C75.0996 0 73.5869 1.51274 73.5869 3.37891C73.5869 5.24508 75.0992 6.75781 76.9654 6.75781Z" fill="#F18500"/>
</g>
<defs>
<clipPath id="clip0">
<rect width="173" height="173" fill="white"/>
</clipPath>
</defs>
</svg>
