<?xml version="1.0" encoding="UTF-8"?>
<svg xmlns="http://www.w3.org/2000/svg" xmlns:xlink="http://www.w3.org/1999/xlink" width="401pt" height="281pt" viewBox="0 0 401 281" version="1.1">
<g id="surface1">
<path style=" stroke:none;fill-rule:nonzero;fill:rgb(92.941176%,92.941176%,92.941176%);fill-opacity:1;" d="M 132.714844 21.089844 L 9.386719 74.445312 C 3.808594 76.859375 0.453125 82.636719 1.121094 88.6875 L 16.617188 229.476562 C 18.097656 242.894531 35.910156 246.492188 42.464844 234.691406 L 150.296875 40.550781 C 156.71875 28.984375 144.847656 15.84375 132.714844 21.089844 Z M 132.714844 21.089844 "/>
<path style=" stroke:none;fill-rule:nonzero;fill:rgb(94.509804%,52.156863%,0%);fill-opacity:1;" d="M 333.050781 224.285156 L 348.277344 91.382812 C 348.96875 85.371094 345.65625 79.617188 340.101562 77.1875 L 209.933594 20.183594 C 197.539062 14.761719 185.457031 28.460938 192.441406 40.011719 L 307.386719 229.921875 C 314.222656 241.207031 331.546875 237.40625 333.050781 224.285156 Z M 333.050781 224.285156 "/>
<path style=" stroke:none;fill-rule:nonzero;fill:rgb(0%,0%,0%);fill-opacity:1;" d="M 208.644531 194.933594 L 134.136719 194.933594 C 122.949219 194.933594 116.386719 207.539062 122.789062 216.722656 L 162.359375 273.492188 C 168.054688 281.671875 180.257812 281.324219 185.484375 272.835938 L 220.421875 216.066406 C 226.105469 206.832031 219.476562 194.933594 208.644531 194.933594 Z M 208.644531 194.933594 "/>
</g>
</svg>
