<svg width="26" height="26" viewBox="0 0 26 26" fill="none" xmlns="http://www.w3.org/2000/svg">
<g clip-path="url(#clip0)">
<path d="M20.3365 13.674L14.6889 19.3215C14.316 19.6945 13.7086 19.6945 13.3303 19.3215C12.952 18.9486 12.9574 18.3412 13.3303 17.9629L17.3422 13.951H6.94754C6.42008 13.951 5.98853 13.5195 5.98853 12.992C5.98853 12.4645 6.42008 12.033 6.94754 12.033H17.3422L13.3303 8.0211C12.9574 7.64815 12.9574 7.04077 13.3303 6.6625C13.5168 6.47602 13.7619 6.38012 14.007 6.38012C14.252 6.38012 14.4971 6.47602 14.6836 6.6625L20.3311 12.31C20.7094 12.6936 20.7094 13.301 20.3365 13.674Z" fill="black"/>
<path d="M25.041 24.2018H18.7221C18.1947 24.2018 17.7631 23.7703 17.7631 23.2428C17.7631 22.7154 18.1947 22.2838 18.7221 22.2838H24.082V3.71619H18.7221C18.1947 3.71619 17.7631 3.28463 17.7631 2.75717C17.7631 2.22971 18.1947 1.79815 18.7221 1.79815H25.041C25.5684 1.79815 26 2.22971 26 2.75717V23.2428C26 23.7703 25.5684 24.2018 25.041 24.2018Z" fill="black"/>
<circle cx="3" cy="13" r="1" fill="#F18500"/>
</g>
<defs>
<clipPath id="clip0">
<rect width="26" height="26" fill="white" transform="matrix(1 0 0 -1 0 26)"/>
</clipPath>
</defs>
</svg>
